<svg width="70" height="70" viewBox="0 0 70 70" fill="none" xmlns="http://www.w3.org/2000/svg">
<g clip-path="url(#clip0_610_63)">
<path d="M61.2501 8.75H8.75008C5.54175 8.75 2.91675 11.375 2.91675 14.5833V23.3333H8.75008V14.5833H61.2501V55.4167H40.8334V61.25H61.2501C64.4584 61.25 67.0834 58.625 67.0834 55.4167V14.5833C67.0834 11.375 64.4584 8.75 61.2501 8.75ZM2.91675 52.5V61.25H11.6667C11.6667 56.4083 7.75841 52.5 2.91675 52.5ZM2.91675 40.8333V46.6667C10.9667 46.6667 17.5001 53.2 17.5001 61.25H23.3334C23.3334 49.9625 14.2042 40.8333 2.91675 40.8333ZM2.91675 29.1667V35C17.4126 35 29.1667 46.7542 29.1667 61.25H35.0001C35.0001 43.5167 20.6209 29.1667 2.91675 29.1667ZM32.0834 32.3458V38.1792L42.2917 43.75L52.5001 38.1792V32.3458L42.2917 37.9167L32.0834 32.3458ZM42.2917 17.5L26.2501 26.25L42.2917 35L58.3334 26.25L42.2917 17.5Z" fill="#9A9A9A"/>
</g>
<defs>
<clipPath id="clip0_610_63">
<rect width="70" height="70" fill="white"/>
</clipPath>
</defs>
</svg>
