<svg width="70" height="70" viewBox="0 0 70 70" fill="none" xmlns="http://www.w3.org/2000/svg">
<g clip-path="url(#clip0_610_114)">
<path d="M26.25 32.0833H20.4167V37.9166H26.25V32.0833ZM37.9167 32.0833H32.0833V37.9166H37.9167V32.0833ZM49.5833 32.0833H43.75V37.9166H49.5833V32.0833ZM55.4167 11.6666H52.5V5.83331H46.6667V11.6666H23.3333V5.83331H17.5V11.6666H14.5833C11.3458 11.6666 8.77917 14.2916 8.77917 17.5L8.75 58.3333C8.75 61.5416 11.3458 64.1666 14.5833 64.1666H55.4167C58.625 64.1666 61.25 61.5416 61.25 58.3333V17.5C61.25 14.2916 58.625 11.6666 55.4167 11.6666ZM55.4167 58.3333H14.5833V26.25H55.4167V58.3333Z" fill="#9A9A9A"/>
</g>
<defs>
<clipPath id="clip0_610_114">
<rect width="70" height="70" fill="white"/>
</clipPath>
</defs>
</svg>
