<svg width="1502" height="806" viewBox="0 0 1502 806" fill="none" xmlns="http://www.w3.org/2000/svg">
<path d="M170 801.5C115.2 813.1 45.1667 796.667 17 787V315L1450.5 332L1501.5 424.5C1410.67 496.667 1220.2 648.3 1185 677.5C1141 714 1095 745.5 1036.5 750.5C978 755.5 942 743 876 699.5C810 656 686 592.5 642.5 587.5C599 582.5 537.5 590 479.5 611.5C421.5 633 355 687 343 699.5C331 712 238.5 787 170 801.5Z" fill="#AAC4D6" fill-opacity="0.62"/>
<path d="M133 699.5C96.2 709.1 29 676.5 0 659V751C14.8333 762.833 47.8473 795.688 69.5 797C102.5 799 134.618 779.089 184.5 751C236 722 343.5 620 393 595.5C442.5 571 486 555.808 568.5 568.5C627 577.5 694 595.5 720.5 620C747 644.5 878 741.821 947.5 751C986.5 756.151 1029.34 745.207 1048.5 738.5C1078.5 728 1095.5 714.5 1147 681.5C1198.5 648.5 1302.5 582.5 1302.5 582.5L1468 478.5V430.5C1350 493.667 1103 625 1059 645C1004 670 915.5 682 873 675C830.5 668 646.5 531.5 609 508.5C571.5 485.5 453.5 524.5 393 544C332.5 563.5 179 687.5 133 699.5Z" fill="#8CACC2"/>
<path d="M117 732C79.3255 728.165 39.8333 709.667 26 698.5L8 686.5V0H1480.5V502.5C1335.33 567.833 1044.5 707 1017.5 714.5C986.845 723.015 912.5 732 863 714.5C813.5 697 722.5 625.5 693 603.5C663.5 581.5 619 556 546.5 552C474.511 548.028 437.03 568.213 404.687 585.63L404 586C371.5 603.5 321 668.5 247.5 698.5C174 728.5 169.345 737.329 117 732Z" fill="url(#paint0_linear_1137_128)"/>
<defs>
<linearGradient id="paint0_linear_1137_128" x1="79" y1="710" x2="1026.5" y2="32" gradientUnits="userSpaceOnUse">
<stop stop-color="#628298"/>
<stop offset="1" stop-color="#496B82"/>
</linearGradient>
</defs>
</svg>
