<svg width="104" height="89" viewBox="0 0 104 89" fill="none" xmlns="http://www.w3.org/2000/svg">
<path d="M102.864 65.2231H0.486816L96.5367 56.2996L102.864 65.2231Z" fill="#F0F0F0"/>
<path d="M103.838 65.2232L53.3792 0.162354L91.8316 65.2232H103.838Z" fill="white"/>
<path d="M53.3792 0.162354L10.0594 65.2232H0.486816L53.3792 0.162354Z" fill="white"/>
<path d="M54.3525 0L104 64.5741L58.8954 1.46022L54.3525 0Z" fill="#F2F2F2"/>
<path d="M0 64.5741L52.2434 0L47.8627 1.46022L0 64.5741Z" fill="#F0F0F0"/>
<rect x="0.486816" y="68.3058" width="35.0452" height="9.73479" fill="white"/>
<path d="M7.768 72.04H5.552V75.784C5.552 75.8427 5.53067 75.8933 5.488 75.936C5.44533 75.9787 5.39467 76 5.336 76H3.736C3.67733 76 3.62667 75.9787 3.584 75.936C3.54133 75.8933 3.52 75.8427 3.52 75.784V70.616C3.52 70.5573 3.54133 70.5067 3.584 70.464C3.62667 70.4213 3.67733 70.4 3.736 70.4H7.768C7.82667 70.4 7.87733 70.4213 7.92 70.464C7.96267 70.5067 7.984 70.5573 7.984 70.616V71.824C7.984 71.8827 7.96267 71.9333 7.92 71.976C7.87733 72.0187 7.82667 72.04 7.768 72.04ZM10.4126 70.4H12.1486C12.3406 70.4 12.4606 70.488 12.5086 70.664L14.2926 75.768C14.298 75.784 14.3006 75.8107 14.3006 75.848C14.3006 75.88 14.282 75.9147 14.2446 75.952C14.2126 75.984 14.1726 76 14.1246 76H12.6446C12.4846 76 12.3806 75.9333 12.3326 75.8L12.1406 75.272H10.4206L10.2286 75.8C10.1806 75.9333 10.0766 76 9.91663 76H8.43663C8.38863 76 8.34596 75.984 8.30863 75.952C8.27663 75.9147 8.26063 75.88 8.26063 75.848C8.26063 75.8107 8.26329 75.784 8.26863 75.768L10.0526 70.664C10.1006 70.488 10.2206 70.4 10.4126 70.4ZM10.8286 73.712H11.7326L11.2766 72.224L10.8286 73.712ZM15.1579 70.4H20.0219C20.0805 70.4 20.1312 70.4213 20.1739 70.464C20.2165 70.5067 20.2379 70.5573 20.2379 70.616V75.784C20.2379 75.8427 20.2165 75.8933 20.1739 75.936C20.1312 75.9787 20.0805 76 20.0219 76H18.4539C18.3952 76 18.3445 75.9787 18.3019 75.936C18.2592 75.8933 18.2379 75.8427 18.2379 75.784V72.16H16.9419V75.784C16.9419 75.8427 16.9205 75.8933 16.8779 75.936C16.8352 75.9787 16.7845 76 16.7259 76H15.1579C15.0992 76 15.0485 75.9813 15.0059 75.944C14.9632 75.9013 14.9419 75.848 14.9419 75.784V70.616C14.9419 70.5573 14.9632 70.5067 15.0059 70.464C15.0485 70.4213 15.0992 70.4 15.1579 70.4ZM21.8458 70.912C22.3365 70.5173 22.9845 70.32 23.7898 70.32C24.5951 70.32 25.2405 70.52 25.7258 70.92C26.2165 71.3147 26.4618 71.872 26.4618 72.592V73.84C26.4618 74.5707 26.2191 75.128 25.7338 75.512C25.2538 75.8907 24.6058 76.08 23.7898 76.08C22.9738 76.08 22.3231 75.8907 21.8378 75.512C21.3578 75.128 21.1178 74.5707 21.1178 73.84V72.592C21.1178 71.8667 21.3605 71.3067 21.8458 70.912ZM23.3578 74.36C23.4645 74.4667 23.6085 74.52 23.7898 74.52C23.9711 74.52 24.1151 74.4667 24.2218 74.36C24.3285 74.2533 24.3818 74.0907 24.3818 73.872V72.528C24.3818 72.3147 24.3285 72.1547 24.2218 72.048C24.1151 71.936 23.9711 71.88 23.7898 71.88C23.6085 71.88 23.4645 71.936 23.3578 72.048C23.2511 72.1547 23.1978 72.3147 23.1978 72.528V73.872C23.1978 74.0907 23.2511 74.2533 23.3578 74.36ZM27.6523 74.288H28.4523C28.719 74.288 28.8656 74.2507 28.8923 74.176L27.0283 70.648C27.023 70.632 27.0203 70.6133 27.0203 70.592C27.0416 70.464 27.1083 70.4 27.2203 70.4H28.8923C29.0043 70.4 29.0896 70.464 29.1483 70.592L29.8923 72.168L30.4843 70.592C30.5376 70.464 30.6283 70.4 30.7563 70.4H32.4123C32.4603 70.4 32.503 70.4187 32.5403 70.456C32.5776 70.488 32.5963 70.5253 32.5963 70.568C32.5963 70.6107 32.5936 70.6373 32.5883 70.648L30.9963 74.368C30.719 75.0187 30.4256 75.4533 30.1163 75.672C29.8123 75.8907 29.3243 76 28.6523 76H27.6523C27.5936 76 27.543 75.9787 27.5003 75.936C27.4576 75.8933 27.4363 75.8427 27.4363 75.784V74.504C27.4363 74.4453 27.4576 74.3947 27.5003 74.352C27.543 74.3093 27.5936 74.288 27.6523 74.288Z" fill="#628298"/>
<path d="M42.5128 68.4384H54.2328C54.3795 68.4384 54.5061 68.4917 54.6128 68.5984C54.7195 68.705 54.7728 68.8317 54.7728 68.9784V72.1984C54.7728 72.345 54.7195 72.4717 54.6128 72.5784C54.5061 72.685 54.3795 72.7384 54.2328 72.7384H50.9128V81.8984C50.9128 82.045 50.8595 82.1717 50.7528 82.2784C50.6461 82.385 50.5195 82.4384 50.3728 82.4384H46.3728C46.2261 82.4384 46.0995 82.385 45.9928 82.2784C45.8861 82.1717 45.8328 82.045 45.8328 81.8984V72.7384H42.5128C42.3661 72.7384 42.2395 72.685 42.1328 72.5784C42.0261 72.4717 41.9728 72.345 41.9728 72.1984V68.9784C41.9728 68.8317 42.0261 68.705 42.1328 68.5984C42.2395 68.4917 42.3661 68.4384 42.5128 68.4384ZM61.4767 73.7584V77.1184C61.4767 78.1984 61.97 78.7384 62.9567 78.7384C63.7167 78.7384 64.2167 78.3784 64.4567 77.6584C64.5234 77.4317 64.6034 77.2784 64.6967 77.1984C64.8034 77.1184 64.97 77.0784 65.1967 77.0784H69.2767C69.3967 77.0784 69.4967 77.125 69.5767 77.2184C69.67 77.2984 69.7167 77.3984 69.7167 77.5184C69.7167 78.6784 69.3834 79.6517 68.7167 80.4384C67.49 81.905 65.5767 82.6384 62.9767 82.6384C60.9367 82.6384 59.31 82.1917 58.0967 81.2984C56.8834 80.3917 56.2767 79.005 56.2767 77.1384V73.7384C56.2767 71.9117 56.8967 70.5384 58.1367 69.6184C59.3767 68.6984 60.99 68.2384 62.9767 68.2384C65.5767 68.2384 67.49 68.9717 68.7167 70.4384C69.3834 71.225 69.7167 72.1984 69.7167 73.3584C69.7167 73.4784 69.67 73.585 69.5767 73.6784C69.4967 73.7584 69.3967 73.7984 69.2767 73.7984H65.1967C64.9834 73.7984 64.8234 73.7584 64.7167 73.6784C64.6234 73.5984 64.5367 73.445 64.4567 73.2184C64.2034 72.4984 63.7034 72.1384 62.9567 72.1384C61.97 72.1384 61.4767 72.6784 61.4767 73.7584ZM72.1581 68.4384H84.3181C84.4648 68.4384 84.5914 68.4917 84.6981 68.5984C84.8048 68.705 84.8581 68.8317 84.8581 68.9784V81.8984C84.8581 82.045 84.8048 82.1717 84.6981 82.2784C84.5914 82.385 84.4648 82.4384 84.3181 82.4384H80.3981C80.2514 82.4384 80.1248 82.385 80.0181 82.2784C79.9114 82.1717 79.8581 82.045 79.8581 81.8984V72.8384H76.6181V81.8984C76.6181 82.045 76.5648 82.1717 76.4581 82.2784C76.3514 82.385 76.2248 82.4384 76.0781 82.4384H72.1581C72.0114 82.4384 71.8848 82.3917 71.7781 82.2984C71.6714 82.1917 71.6181 82.0584 71.6181 81.8984V68.9784C71.6181 68.8317 71.6714 68.705 71.7781 68.5984C71.8848 68.4917 72.0114 68.4384 72.1581 68.4384ZM100.558 81.7784C100.598 81.845 100.618 81.9317 100.618 82.0384C100.618 82.1317 100.571 82.225 100.478 82.3184C100.398 82.3984 100.298 82.4384 100.178 82.4384H95.618C95.2313 82.4384 94.958 82.285 94.798 81.9784L92.358 77.6184V81.8984C92.358 82.045 92.3046 82.1717 92.198 82.2784C92.0913 82.385 91.9646 82.4384 91.818 82.4384H87.998C87.8513 82.4384 87.7246 82.385 87.618 82.2784C87.5113 82.1717 87.458 82.045 87.458 81.8984V68.9784C87.458 68.8317 87.5113 68.705 87.618 68.5984C87.7246 68.4917 87.8513 68.4384 87.998 68.4384H91.818C91.9646 68.4384 92.0913 68.4917 92.198 68.5984C92.3046 68.705 92.358 68.8317 92.358 68.9784V72.9384L94.618 68.8784C94.7646 68.585 95.0313 68.4384 95.418 68.4384H99.838C99.958 68.4384 100.058 68.485 100.138 68.5784C100.231 68.6584 100.278 68.7517 100.278 68.8584C100.278 68.9517 100.258 69.0317 100.218 69.0984L96.618 75.1384L100.558 81.7784Z" fill="white"/>
<rect x="0.486816" y="81.61" width="35.0452" height="1.62246" fill="white"/>
</svg>
