<svg width="70" height="70" viewBox="0 0 70 70" fill="none" xmlns="http://www.w3.org/2000/svg">
<g clip-path="url(#clip0_610_88)">
<path d="M58.3335 20.4167H46.6668V14.5833C46.6668 12.9792 46.0252 11.5208 44.946 10.4708C43.896 9.39167 42.4377 8.75 40.8335 8.75H29.1668C25.9585 8.75 23.3335 11.375 23.3335 14.5833V20.4167H11.6668C8.4585 20.4167 5.8335 23.0417 5.8335 26.25V58.3333C5.8335 61.5417 8.4585 64.1667 11.6668 64.1667H58.3335C61.5418 64.1667 64.1668 61.5417 64.1668 58.3333V26.25C64.1668 23.0417 61.5418 20.4167 58.3335 20.4167ZM29.1668 14.5833H40.8335V20.4167H29.1668V14.5833ZM32.0835 53.9583L29.1668 51.0417L37.9168 42.2917L29.1668 33.5417L32.0835 30.625L43.7502 42.2917L32.0835 53.9583Z" fill="#9A9A9A"/>
</g>
<defs>
<clipPath id="clip0_610_88">
<rect width="70" height="70" fill="white"/>
</clipPath>
</defs>
</svg>
