<svg width="70" height="70" viewBox="0 0 70 70" fill="none" xmlns="http://www.w3.org/2000/svg">
<g clip-path="url(#clip0_610_75)">
<path d="M48.1252 35C52.1502 35 55.3877 31.7333 55.3877 27.7083C55.3877 23.6833 52.1502 20.4166 48.1252 20.4166C44.1002 20.4166 40.8335 23.6833 40.8335 27.7083C40.8335 31.7333 44.1002 35 48.1252 35ZM26.2502 32.0833C31.0918 32.0833 34.971 28.175 34.971 23.3333C34.971 18.4916 31.0918 14.5833 26.2502 14.5833C21.4085 14.5833 17.5002 18.4916 17.5002 23.3333C17.5002 28.175 21.4085 32.0833 26.2502 32.0833ZM48.1252 40.8333C42.7877 40.8333 32.0835 43.5166 32.0835 48.8541V55.4166H64.1668V48.8541C64.1668 43.5166 53.4627 40.8333 48.1252 40.8333ZM26.2502 37.9166C19.4543 37.9166 5.8335 41.3291 5.8335 48.125V55.4166H26.2502V48.8541C26.2502 46.375 27.2127 42.0291 33.1627 38.7333C30.6252 38.2083 28.1752 37.9166 26.2502 37.9166Z" fill="#9A9A9A"/>
</g>
<defs>
<clipPath id="clip0_610_75">
<rect width="70" height="70" fill="white"/>
</clipPath>
</defs>
</svg>
