<svg width="60" height="42" viewBox="0 0 60 42" fill="none" xmlns="http://www.w3.org/2000/svg">
<path d="M43.1252 21C47.1502 21 50.3877 17.7333 50.3877 13.7083C50.3877 9.68331 47.1502 6.41665 43.1252 6.41665C39.1002 6.41665 35.8335 9.68331 35.8335 13.7083C35.8335 17.7333 39.1002 21 43.1252 21ZM21.2502 18.0833C26.0918 18.0833 29.971 14.175 29.971 9.33331C29.971 4.49165 26.0918 0.583313 21.2502 0.583313C16.4085 0.583313 12.5002 4.49165 12.5002 9.33331C12.5002 14.175 16.4085 18.0833 21.2502 18.0833ZM43.1252 26.8333C37.7877 26.8333 27.0835 29.5166 27.0835 34.8541V41.4166H59.1668V34.8541C59.1668 29.5166 48.4627 26.8333 43.1252 26.8333ZM21.2502 23.9166C14.4543 23.9166 0.833496 27.3291 0.833496 34.125V41.4166H21.2502V34.8541C21.2502 32.375 22.2127 28.0291 28.1627 24.7333C25.6252 24.2083 23.1752 23.9166 21.2502 23.9166Z" fill="#9A9A9A"/>
</svg>
