<svg width="41" height="41" viewBox="0 0 41 41" fill="none" xmlns="http://www.w3.org/2000/svg">
<g clip-path="url(#clip0_607_34)">
<path d="M20.5002 7.6875C11.9585 7.6875 4.66391 13.0004 1.7085 20.5C4.66391 27.9996 11.9585 33.3125 20.5002 33.3125C29.0418 33.3125 36.3364 27.9996 39.2918 20.5C36.3364 13.0004 29.0418 7.6875 20.5002 7.6875ZM20.5002 29.0417C15.7852 29.0417 11.9585 25.215 11.9585 20.5C11.9585 15.785 15.7852 11.9583 20.5002 11.9583C25.2152 11.9583 29.0418 15.785 29.0418 20.5C29.0418 25.215 25.2152 29.0417 20.5002 29.0417ZM20.5002 15.375C17.6643 15.375 15.3752 17.6642 15.3752 20.5C15.3752 23.3358 17.6643 25.625 20.5002 25.625C23.336 25.625 25.6252 23.3358 25.6252 20.5C25.6252 17.6642 23.336 15.375 20.5002 15.375Z" fill="#628298"/>
</g>
<defs>
<clipPath id="clip0_607_34">
<rect width="41" height="41" fill="white"/>
</clipPath>
</defs>
</svg>
